Simulation
nRows=23
nColumns=15
endheader
time  TH_x TH_y TH_z SC_y  SC_z  SC_x  AC_y  AC_z  AC_x  GH_y  GH_z  GH_yy  EL_x  PS_y
1.5500000000000007  0.000000  0.000000  0.000000  -49.408833872590854  17.21227659241898  13.598032851395796  39.900929643897626  -4.2332791789231985  -2.7642175712656294  -31.926518967076856  23.146298317510656  79.9056311587759  82.9779835472924  120.000000
1.5810000000000006  0.000000  0.000000  0.000000  -49.50373146000862  17.278385299148606  13.740050970894185  39.93207062831466  -4.244627670130117  -2.7537064292370603  -31.785612909915734  23.244939011295745  79.79143872499453  83.18379326156786  120.000000
1.6120000000000008  0.000000  0.000000  0.000000  -49.54815075028247  17.313058460373536  13.82118669014664  39.948576193260514  -4.242513133833253  -2.7499421676770295  -31.712829907308112  23.30662569587145  79.67201496665494  83.1967231989084  120.000000
1.6430000000000007  0.000000  0.000000  0.000000  -49.536049948356116  17.30915212344627  13.83997371053491  39.95012190805212  -4.227536977412188  -2.758707795150355  -31.678368057767504  23.317459145332084  79.52259686913214  83.00244236807099  120.000000
1.6740000000000008  0.000000  0.000000  0.000000  -49.461914302165795  17.259664510932737  13.795220129915071  39.93751005609871  -4.198399680992985  -2.7836760148091573  -31.6549032404392  23.263861202633667  79.32142472891523  82.59340054385714  120.000000
1.7050000000000007  0.000000  0.000000  0.000000  -49.32137115675291  17.157788989192124  13.685792346152699  39.912234408269434  -4.151850290249533  -2.8265889594696563  -31.615917795932674  23.134167406480408  79.04863917541718  81.96918048620634  120.000000
1.7360000000000007  0.000000  0.000000  0.000000  -49.11145528571736  16.99740796732944  13.51037074270751  39.87707087693278  -4.083239908243214  -2.8867950089640226  -31.53676062952804  22.919295027889362  78.68613805258688  81.13315665301405  120.000000
1.7670000000000008  0.000000  0.000000  0.000000  -48.83036222642545  16.773210457413246  13.267014881286883  39.835172565275585  -3.9874994127219145  -2.9614816488636673  -31.394202810547966  22.613815991032936  78.21622809468936  80.0895629581236  120.000000
1.7980000000000007  0.000000  0.000000  0.000000  -48.47879072692248  16.48190822441896  12.95451470214216  39.79042352353259  -3.859775339340895  -3.045498058775701  -31.17069255575687  22.216334080842596  77.6246379824481  78.84482476760138  120.000000
1.8290000000000008  0.000000  0.000000  0.000000  -48.06168866085624  16.12481286958433  12.573514964671924  39.7463360048829  -3.696442821288072  -3.1318766467578505  -30.854287218548397  21.72911104300066  76.90060852889856  77.41242999481811  120.000000
1.8600000000000008  0.000000  0.000000  0.000000  -47.588902734578824  15.708814181235306  12.12762033260489  39.7058725889516  -3.495161261337481  -3.2121264579340982  -30.44231806468125  21.157268764025087  76.04044823110445  75.81550829412478  120.000000
1.891000000000001  0.000000  0.000000  0.000000  -47.07400088549796  15.244845671897252  11.62320983578693  39.67149460165805  -3.2549270245247754  -3.277416145797124  -29.939864931678077  20.5083693978685  75.04672837595696  74.08436252151769  120.000000
1.9220000000000008  0.000000  0.000000  0.000000  -46.53190065819602  14.744842825452102  11.068794754141479  39.646024700594076  -2.975300164690249  -3.31937848265659  -29.36044301933044  19.791845715072835  73.92941153791855  72.25109093356343  120.000000
1.953000000000001  0.000000  0.000000  0.000000  -45.97664397499981  14.219162155969915  10.473509840021233  39.632214113247905  -2.655913964479016  -3.3317650955004394  -28.7189687216149  19.018136192547303  72.70078929823188  70.34534476058508  120.000000
1.9840000000000009  0.000000  0.000000  0.000000  -45.42002131602636  13.67538136273664  9.845869768517538  39.63306195348988  -2.296354202954586  -3.3103235113405924  -28.02744093784803  18.197717191607364  71.37226636102173  68.38941086084536  120.000000
2.015000000000001  0.000000  0.000000  0.000000  -44.870894105484695  13.118097828932369  9.192368185705268  39.651278411223316  -1.8967375862660343  -3.252608683939721  -27.28757438734648  17.340704861010284  69.9478140309768  66.39484208458357  120.000000
2.0460000000000007  0.000000  0.000000  0.000000  -44.335926432018674  12.549276972045  8.517755491700234  39.689980015168295  -1.4570367967325777  -3.1573189662894805  -26.491809572053434  16.456596471534827  68.42431301845663  64.36443893026028  120.000000
2.077000000000001  0.000000  0.000000  0.000000  -43.81927939913041  11.97003243489825  7.825334465907245  39.751568241572656  -0.9768275103216812  -3.0236373516037163  -25.628442072543375  15.553673560951061  66.79620418281787  62.29750154482091  120.000000
2.108000000000001  0.000000  0.000000  0.000000  -43.321878408611326  11.381042523375708  7.117753870917079  39.83832550594981  -0.4532987957252649  -2.8504586754470935  -24.6943631670889  14.63764243565581  65.06724669206181  60.19461718332002  120.000000
2.139000000000001  0.000000  0.000000  0.000000  -42.84165560262522  10.780246603189815  6.400464420200343  39.95333996254302  0.11471934011371045  -2.6397699687299108  -23.696722948146473  13.713959783577545  63.249868608621824  58.05789418589419  120.000000
2.170000000000001  0.000000  0.000000  0.000000  -42.376915919238144  10.162065069463246  5.681842800823931  40.1024992792963  0.7213405499208382  -2.3962487307957  -22.65154504913831  12.794090483066864  61.360151735797395  55.89099500242575  120.000000
2.201000000000001  0.000000  0.000000  0.000000  -41.92528282826973  9.526108346262637  4.969408448535158  40.29497609711513  1.344700440700949  -2.1199299279690718  -21.580639283693422  11.904146526960163  59.416757873933385  53.698376819780066  120.000000
2.232000000000001  0.000000  0.000000  0.000000  -41.48048755293868  8.886142243148077  4.264577333601982  40.54529467476647  1.9472156239751481  -1.7992937501725432  -20.51968629830768  11.08433142000869  57.45100520400132  51.4848718097989  120.000000
